# xmcd CD database file
#
# Track frame offsets:
#	150
#	4500
#	28725
#	60675
#	92625
#	113325
#	133275
#	154875
#	185400
#	218400
#	244350
#	268800
#	303225
#
# Disc length: 4045 seconds
#
# Revision: 1
# Processed by: cddbd v1.5.1PL2 Copyright (c) Steve Scherf et al.
# Submitted via: freeDBTagger 0.8.2.1
#
DISCID=ab0fcb0d
DTITLE=KOTOKO - 羽-hane-
DYEAR=1900
DGENRE=blues
TTITLE0=Introduction
TTITLE1=Asura
TTITLE2=冬の雫
TTITLE3=疾風雲
TTITLE4=Gratitude〜大きな栗の木の下で
TTITLE5=幻影
TTITLE6=痛いよ
TTITLE7=ひとりごと
TTITLE8=声が届くなら
TTITLE9=Lament
TTITLE10=足あと
TTITLE11=羽
TTITLE12=カナリア-SORMA No.3Re-mix-
EXTD=
EXTT0=
EXTT1=
EXTT2=
EXTT3=
EXTT4=
EXTT5=
EXTT6=
EXTT7=
EXTT8=
EXTT9=
EXTT10=
EXTT11=
EXTT12=
PLAYORDER=
